<svg width="100" xmlns="http://www.w3.org/2000/svg" height="100" id="screenshot-897f0c96-eb0f-80ee-8007-dd9027a27cf8" viewBox="0 0 100 100" xmlns:xlink="http://www.w3.org/1999/xlink" fill="none" version="1.1"><g id="shape-897f0c96-eb0f-80ee-8007-dd9027a27cf8" rx="0" ry="0"><g id="shape-897f0c96-eb0f-80ee-8007-dd900ce84ee8"><defs><clipPath id="frame-clip-897f0c96-eb0f-80ee-8007-dd900ce84ee8-render-2" class="frame-clip frame-clip-def"><rect rx="0" ry="0" x="0" y="0" width="100" height="100" transform="matrix(1.000000, 0.000000, 0.000000, 1.000000, 0.000000, 0.000000)"/></clipPath></defs><g class="frame-container-wrapper"><g class="frame-container-blur"><g class="frame-container-shadows"><g clip-path="url(#frame-clip-897f0c96-eb0f-80ee-8007-dd900ce84ee8-render-2)" fill="none"><g class="fills" id="fills-897f0c96-eb0f-80ee-8007-dd900ce84ee8"><rect width="100" height="100" class="frame-background" x="0" transform="matrix(1.000000, 0.000000, 0.000000, 1.000000, 0.000000, 0.000000)" style="fill: rgb(255, 255, 255); fill-opacity: 1;" ry="0" rx="0" y="0"/></g><g class="frame-children"><g id="shape-897f0c96-eb0f-80ee-8007-dd90060a1ab4" width="24" class="icon icon-tabler icons-tabler-outline icon-tabler-tools" height="24" rx="0" ry="0" style="fill: rgb(0, 0, 0);"><g id="shape-897f0c96-eb0f-80ee-8007-dd90060b0158" style="display: none;"><g class="fills" id="fills-897f0c96-eb0f-80ee-8007-dd90060b0158"><rect width="24" height="24" x="38" stroke-linejoin="round" transform="matrix(1.000000, 0.000000, 0.000000, 1.000000, 0.000000, 0.000000)" style="fill: none;" ry="0" fill="none" stroke-linecap="round" rx="0" y="38"/></g><g fill="none" stroke-linejoin="round" stroke-linecap="round" id="strokes-9aa415c4-21bd-8022-8007-dd9056f7b5c8-897f0c96-eb0f-80ee-8007-dd90060b0158" class="strokes"><g class="stroke-shape"><rect rx="0" ry="0" x="38" y="38" transform="matrix(1.000000, 0.000000, 0.000000, 1.000000, 0.000000, 0.000000)" width="24" height="24" style="fill: none; stroke-width: 2; stroke: rgb(0, 0, 0); stroke-opacity: 1;"/></g></g></g><g id="shape-897f0c96-eb0f-80ee-8007-dd90060bcb69"><g class="fills" id="fills-897f0c96-eb0f-80ee-8007-dd90060bcb69"><path d="M38,38L62,38L62,62L38,62Z" stroke="none" fill="none" stroke-linejoin="round" stroke-linecap="round" stroke-width="2" style="fill: none;"/></g></g><g id="shape-897f0c96-eb0f-80ee-8007-dd90060c75d1"><g class="fills" id="fills-897f0c96-eb0f-80ee-8007-dd90060c75d1"><path d="M41,59L45,59L58,46C59.1044921875,44.8953857421875,59.1044921875,43.1046142578125,58,42C56.8955078125,40.8953857421875,55.1044921875,40.8953857421875,54,42L41,55L41,59" fill="none" stroke-linejoin="round" stroke-linecap="round" style="fill: none;"/></g><g fill="none" stroke-linejoin="round" stroke-linecap="round" id="strokes-9aa415c4-21bd-8022-8007-dd9056f8dc19-897f0c96-eb0f-80ee-8007-dd90060c75d1" class="strokes"><g class="stroke-shape"><path d="M41,59L45,59L58,46C59.1044921875,44.8953857421875,59.1044921875,43.1046142578125,58,42C56.8955078125,40.8953857421875,55.1044921875,40.8953857421875,54,42L41,55L41,59" style="fill: none; stroke-width: 2; stroke: rgb(0, 0, 0); stroke-opacity: 1;"/></g></g></g><g id="shape-897f0c96-eb0f-80ee-8007-dd90060c75d2"><g class="fills" id="fills-897f0c96-eb0f-80ee-8007-dd90060c75d2"><path d="M52.5,43.5L56.5,47.5" fill="none" stroke-linejoin="round" stroke-linecap="round" style="fill: none;"/></g><g fill="none" stroke-linejoin="round" stroke-linecap="round" id="strokes-9aa415c4-21bd-8022-8007-dd9056f943ac-897f0c96-eb0f-80ee-8007-dd90060c75d2" class="strokes"><g class="stroke-shape"><path d="M52.5,43.5L56.5,47.5" style="fill: none; stroke-width: 2; stroke: rgb(0, 0, 0); stroke-opacity: 1;"/></g></g></g><g id="shape-897f0c96-eb0f-80ee-8007-dd90060c75d3"><g class="fills" id="fills-897f0c96-eb0f-80ee-8007-dd90060c75d3"><path d="M50,46L45,41L41,45L46,50" fill="none" stroke-linejoin="round" stroke-linecap="round" style="fill: none;"/></g><g fill="none" stroke-linejoin="round" stroke-linecap="round" id="strokes-9aa415c4-21bd-8022-8007-dd9056f9fcbe-897f0c96-eb0f-80ee-8007-dd90060c75d3" class="strokes"><g class="stroke-shape"><path d="M50,46L45,41L41,45L46,50" style="fill: none; stroke-width: 2; stroke: rgb(0, 0, 0); stroke-opacity: 1;"/></g></g></g><g id="shape-897f0c96-eb0f-80ee-8007-dd90060c960a"><g class="fills" id="fills-897f0c96-eb0f-80ee-8007-dd90060c960a"><path d="M45,46L43.5,47.5" fill="none" stroke-linejoin="round" stroke-linecap="round" style="fill: none;"/></g><g fill="none" stroke-linejoin="round" stroke-linecap="round" id="strokes-9aa415c4-21bd-8022-8007-dd9056fa3f92-897f0c96-eb0f-80ee-8007-dd90060c960a" class="strokes"><g class="stroke-shape"><path d="M45,46L43.5,47.5" style="fill: none; stroke-width: 2; stroke: rgb(0, 0, 0); stroke-opacity: 1;"/></g></g></g><g id="shape-897f0c96-eb0f-80ee-8007-dd90060c960b"><g class="fills" id="fills-897f0c96-eb0f-80ee-8007-dd90060c960b"><path d="M54,50L59,55L55,59L50,54" fill="none" stroke-linejoin="round" stroke-linecap="round" style="fill: none;"/></g><g fill="none" stroke-linejoin="round" stroke-linecap="round" id="strokes-9aa415c4-21bd-8022-8007-dd9056fa69ce-897f0c96-eb0f-80ee-8007-dd90060c960b" class="strokes"><g class="stroke-shape"><path d="M54,50L59,55L55,59L50,54" style="fill: none; stroke-width: 2; stroke: rgb(0, 0, 0); stroke-opacity: 1;"/></g></g></g><g id="shape-897f0c96-eb0f-80ee-8007-dd90060c960c"><g class="fills" id="fills-897f0c96-eb0f-80ee-8007-dd90060c960c"><path d="M54,55L52.5,56.5" fill="none" stroke-linejoin="round" stroke-linecap="round" style="fill: none;"/></g><g fill="none" stroke-linejoin="round" stroke-linecap="round" id="strokes-9aa415c4-21bd-8022-8007-dd9056fabd6d-897f0c96-eb0f-80ee-8007-dd90060c960c" class="strokes"><g class="stroke-shape"><path d="M54,55L52.5,56.5" style="fill: none; stroke-width: 2; stroke: rgb(0, 0, 0); stroke-opacity: 1;"/></g></g></g></g></g></g></g></g></g></g></g></svg>